<svg width="62" height="58" viewBox="0 0 62 58" fill="none" xmlns="http://www.w3.org/2000/svg">
<g clip-path="url(#clip0_49_99)">
<path d="M57.8985 58H4.10154C1.86 58 0 56.1595 0 53.8942V21.7559C0 19.4907 1.86 17.6501 4.10154 17.6501H20.8892V19.5379H4.10154C2.90923 19.5379 1.90769 20.5289 1.90769 21.7559V53.9414C1.90769 55.1685 2.90923 56.1595 4.10154 56.1595H57.8985C59.0908 56.1595 60.0923 55.1685 60.0923 53.9414V21.7559C60.0923 20.5289 59.0908 19.5379 57.8985 19.5379V17.6501C60.14 17.6501 62 19.4907 62 21.7559V53.9414C62 56.1595 60.14 58 57.8985 58Z" fill="#7044CC"/>
<path d="M15.7861 39.0757H5.10303V40.9634H15.7861V39.0757Z" fill="#7044CC"/>
<path d="M27.8523 46.2961H5.10303V48.1839H27.8523V46.2961Z" fill="#7044CC"/>
<path d="M29.1401 39.0757H18.457V40.9634H29.1401V39.0757Z" fill="#7044CC"/>
<path d="M42.4939 39.0757H31.8108V40.9634H42.4939V39.0757Z" fill="#7044CC"/>
<path d="M55.8476 39.0757H45.1646V40.9634H55.8476V39.0757Z" fill="#7044CC"/>
<path d="M16.6445 34.6395H4.57837V25.6729H16.6922V34.6395H16.6445ZM6.48606 32.7518H14.7845V27.5606H6.48606V32.7518Z" fill="#7044CC"/>
<path d="M39.68 35.253L39.3939 35.1587C32.097 33.035 23.7031 29.1652 23.7031 18.0277V4.48332L24.8 4.6249C26.7077 4.90805 28.8062 4.86086 30.857 4.48332C34.1477 3.86981 37.1047 2.45403 38.9647 0.6607L39.68 0L40.3477 0.6607C42.2077 2.50122 45.1647 3.86981 48.4554 4.48332C50.5539 4.86086 52.6524 4.90805 54.5124 4.6249L55.6093 4.43613V17.9805C55.6093 29.118 47.2154 32.9878 39.9185 35.1587L39.68 35.253ZM25.6108 6.65419V18.0277C25.6108 25.7673 29.8077 30.345 39.68 33.3181C49.5524 30.345 53.7493 25.7673 53.7493 18.0277V6.65419C51.937 6.84296 50.0293 6.70138 48.1216 6.37103C44.8308 5.75753 41.7785 4.38893 39.68 2.59561C37.5816 4.38893 34.5293 5.71033 31.2385 6.32384C29.3308 6.70138 27.4231 6.79577 25.6108 6.65419Z" fill="#7044CC"/>
<path d="M39.6799 30.5338L39.3937 30.4394C31.4291 27.8438 28.186 24.2572 28.186 18.0277V9.34425L29.0445 9.29705C29.903 9.24986 30.8091 9.10828 31.6676 8.9667C34.386 8.44758 37.0091 7.50373 39.1553 6.18233L39.6322 5.89917L40.1091 6.18233C42.2553 7.50373 44.8307 8.44758 47.5968 8.9667C48.4553 9.10828 49.3614 9.24986 50.2199 9.29705L51.0783 9.34425V17.9805C51.0783 24.2572 47.8353 27.8438 39.9183 30.3923L39.6799 30.5338ZM30.0937 11.0904V17.9805C30.0937 23.3133 32.6691 26.1921 39.6799 28.5045C46.643 26.1921 49.266 23.3133 49.266 17.9805V11.0904C48.5983 10.996 47.9783 10.9016 47.3106 10.8072C44.5445 10.2881 41.9214 9.34425 39.6799 8.07004C37.4383 9.34425 34.8153 10.2881 32.0491 10.8072C31.4291 10.9488 30.7614 11.0432 30.0937 11.0904Z" fill="#7044CC"/>
<path d="M39.2509 20.5762L36.1509 18.5469L37.2001 16.9423L38.8216 18.0278L41.9216 14.158L43.4478 15.2906L39.2509 20.5762Z" fill="#7044CC"/>
</g>
<defs>
<clipPath id="clip0_49_99">
<rect width="62" height="58" fill="white"/>
</clipPath>
</defs>
</svg>
