<svg width="45" height="62" viewBox="0 0 45 62" fill="none" xmlns="http://www.w3.org/2000/svg">
<g clip-path="url(#clip0_49_49)">
<path d="M27.7398 1.33533H10.2424V3.24302H27.7398V1.33533Z" fill="#7044CC"/>
<path d="M27.7398 6.67688H10.2424V8.58457H27.7398V6.67688Z" fill="#7044CC"/>
<path d="M7.39717 8.44148H0.284424V1.33533H7.39717V8.44148ZM2.18116 6.53379H5.50044V3.24302H2.18116V6.53379Z" fill="#7044CC"/>
<path d="M44.5258 45.117H33.0032V43.2093H42.6291V30.6185H1.89673V43.2093H11.8546V45.117H0V28.7108H44.5258V45.117Z" fill="#7044CC"/>
<path d="M33.0505 35.96H11.4277V37.8677H33.0505V35.96Z" fill="#7044CC"/>
<path d="M44.9999 10.54H30.5847V0H44.9999V10.54ZM32.4815 8.63231H43.1032V1.90769H32.4815V8.63231Z" fill="#7044CC"/>
<path d="M40.9695 4.29236H34.6155V6.20005H40.9695V4.29236Z" fill="#7044CC"/>
<path d="M27.7398 15.2139H10.2424V17.1216H27.7398V15.2139Z" fill="#7044CC"/>
<path d="M27.7398 20.5554H10.2424V22.4631H27.7398V20.5554Z" fill="#7044CC"/>
<path d="M7.39717 22.32H0.284424V15.2139H7.39717V22.32ZM2.18116 20.4123H5.50044V17.1216H2.18116V20.4123Z" fill="#7044CC"/>
<path d="M44.9999 24.4184H30.5847V13.8784H44.9999V24.4184ZM32.4815 22.5107H43.1032V15.7861H32.4815V22.5107Z" fill="#7044CC"/>
<path d="M40.9695 18.1708H34.6155V20.0785H40.9695V18.1708Z" fill="#7044CC"/>
<path d="M22.9981 39.7277H21.1013V43.3523H22.9981V39.7277Z" fill="#7044CC"/>
<path d="M15.8954 42.909L14.9573 44.567L18.1305 46.3833L19.0687 44.7254L15.8954 42.909Z" fill="#7044CC"/>
<path d="M18.3467 48.8087L15.1731 50.6243L16.1108 52.2824L19.2845 50.4668L18.3467 48.8087Z" fill="#7044CC"/>
<path d="M26.4016 48.4718L25.4636 50.13L28.6373 51.946L29.5752 50.2878L26.4016 48.4718Z" fill="#7044CC"/>
<path d="M28.4145 42.577L25.2412 44.3933L26.1793 46.0513L29.3526 44.235L28.4145 42.577Z" fill="#7044CC"/>
<path d="M27.6923 58.6615L16.7861 58.5661L22.3341 49.2661L27.6923 58.6615ZM20.1528 56.6584L24.4205 56.7061L22.3341 53.0338L20.1528 56.6584Z" fill="#7044CC"/>
<path d="M21.3417 57.5361L21.3008 61.9714L23.1975 61.9891L23.2384 57.5537L21.3417 57.5361Z" fill="#7044CC"/>
</g>
<defs>
<clipPath id="clip0_49_49">
<rect width="45" height="62" fill="white"/>
</clipPath>
</defs>
</svg>
