<svg width="29" height="29" viewBox="0 0 29 29" fill="none" xmlns="http://www.w3.org/2000/svg">
<path d="M13.96 17.436L13.69 14.52L13.78 14.43C14.932 14.406 15.814 14.166 16.426 13.71C17.05 13.254 17.362 12.636 17.362 11.856C17.362 11.196 17.122 10.644 16.642 10.2C16.162 9.744 15.526 9.516 14.734 9.516C13.522 9.516 12.43 10.08 11.458 11.208L10.54 10.326C11.692 8.934 13.102 8.238 14.77 8.238C15.97 8.238 16.942 8.574 17.686 9.246C18.43 9.918 18.802 10.782 18.802 11.838C18.802 12.906 18.454 13.746 17.758 14.358C17.062 14.958 16.162 15.336 15.058 15.492L14.878 17.436H13.96ZM13.582 21V19.11H15.238V21H13.582Z" fill="black"/>
<circle cx="14.5" cy="14.5" r="14" stroke="black"/>
</svg>
