<svg width="26" height="26" viewBox="0 0 26 26" fill="none" xmlns="http://www.w3.org/2000/svg">
<path d="M23.3772 7.42615C23.5289 6.9224 23.3772 6.55298 22.66 6.55298H20.2843C19.6798 6.55298 19.4035 6.87256 19.2519 7.22356C19.2519 7.22356 18.044 10.1691 16.3323 12.0791C15.7798 12.6348 15.5274 12.8103 15.2262 12.8103C15.0756 12.8103 14.8568 12.6348 14.8568 12.1311V7.42615C14.8568 6.82165 14.6824 6.55298 14.1786 6.55298H10.4455C10.0685 6.55298 9.84096 6.83248 9.84096 7.09898C9.84096 7.67098 10.6968 7.80315 10.7845 9.41515V12.9121C10.7845 13.6781 10.647 13.8178 10.3436 13.8178C9.53871 13.8178 7.58004 10.8614 6.41763 7.47706C6.19121 6.81948 5.96263 6.55406 5.35596 6.55406H2.98129C2.30204 6.55406 2.16663 6.87365 2.16663 7.22465C2.16663 7.85515 2.97154 10.9751 5.91604 15.1016C7.87904 17.9193 10.6426 19.4468 13.1603 19.4468C14.6694 19.4468 14.8557 19.1077 14.8557 18.5227V16.3929C14.8557 15.7147 14.9998 15.5782 15.4775 15.5782C15.8285 15.5782 16.433 15.7559 17.8425 17.1133C19.4523 18.7231 19.7188 19.4457 20.6234 19.4457H22.998C23.6762 19.4457 24.0153 19.1066 23.8203 18.4371C23.6069 17.7709 22.8377 16.8013 21.8172 15.6541C21.2625 14.9997 20.4338 14.2956 20.1814 13.9435C19.8293 13.4896 19.9311 13.2891 20.1814 12.8861C20.1825 12.8872 23.076 8.81173 23.3772 7.42615Z" fill="white"/>
</svg>
