<svg width="62" height="58" fill="none" xmlns="http://www.w3.org/2000/svg"><g clip-path="url(#a)" fill="#7044CC"><path d="M57.898 58H4.102A4.12 4.12 0 0 1 0 53.894V21.756a4.12 4.12 0 0 1 4.102-4.106h16.787v1.888H4.102c-1.193 0-2.194.99-2.194 2.218V53.94c0 1.227 1.001 2.218 2.194 2.218h53.796c1.193 0 2.194-.99 2.194-2.218V21.756c0-1.227-1.001-2.218-2.194-2.218V17.65A4.12 4.12 0 0 1 62 21.756V53.94c0 2.22-1.86 4.06-4.102 4.06Z"/><path d="M15.786 39.076H5.103v1.887h10.683v-1.887Zm12.066 7.22H5.103v1.888h22.75v-1.888Zm1.288-7.22H18.457v1.887H29.14v-1.887Zm13.354 0H31.81v1.887h10.683v-1.887Zm13.354 0H45.165v1.887h10.683v-1.887ZM16.645 34.64H4.578v-8.967h12.114v8.966h-.047ZM6.486 32.752h8.299V27.56H6.486v5.19Zm33.194 2.501-.286-.094c-7.297-2.124-15.69-5.994-15.69-17.131V4.483l1.096.142c1.908.283 4.006.236 6.057-.142 3.29-.613 6.248-2.029 8.108-3.822L39.68 0l.668.66c1.86 1.841 4.817 3.21 8.107 3.823 2.099.378 4.197.425 6.057.142l1.097-.189V17.98c0 11.138-8.394 15.008-15.69 17.179l-.239.094ZM25.61 6.654v11.374c0 7.74 4.198 12.317 14.07 15.29 9.872-2.973 14.07-7.55 14.07-15.29V6.654c-1.813.189-3.72.047-5.628-.283-3.291-.613-6.343-1.982-8.442-3.775-2.098 1.793-5.15 3.114-8.442 3.728a20.755 20.755 0 0 1-5.627.33Z"/><path d="m39.68 30.534-.286-.095c-7.965-2.595-11.208-6.182-11.208-12.411V9.344l.858-.047c.859-.047 1.765-.189 2.624-.33 2.718-.52 5.341-1.463 7.487-2.785l.477-.283.477.283c2.146 1.322 4.722 2.266 7.488 2.785.858.141 1.764.283 2.623.33l.858.047v8.636c0 6.277-3.243 9.864-11.16 12.412l-.238.142ZM30.094 11.09v6.89c0 5.333 2.575 8.212 9.586 10.524 6.963-2.312 9.586-5.19 9.586-10.524v-6.89c-.668-.094-1.288-.188-1.955-.283-2.767-.519-5.39-1.463-7.631-2.737-2.242 1.274-4.865 2.218-7.63 2.737a12.94 12.94 0 0 1-1.956.283Z"/><path d="m39.25 20.576-3.1-2.03 1.05-1.604 1.622 1.086 3.1-3.87 1.526 1.133-4.197 5.285Z"/></g><defs><clipPath id="a"><path fill="#fff" d="M0 0h62v58H0z"/></clipPath></defs></svg>