<svg width="45" height="62" fill="none" xmlns="http://www.w3.org/2000/svg"><g clip-path="url(#a)" fill="#7044CC"><path d="M27.74 1.335H10.242v1.908H27.74V1.335Zm0 5.342H10.242v1.908H27.74V6.677ZM7.397 8.441H.284V1.335h7.113v7.106ZM2.181 6.534h3.32V3.243H2.18v3.29Zm42.345 38.583H33.003v-1.908h9.626V30.62H1.897v12.59h9.958v1.908H0V28.711h44.526v16.406Z"/><path d="M33.05 35.96H11.428v1.908H33.05V35.96ZM45 10.54H30.585V0H45v10.54ZM32.48 8.632h10.622V1.908H32.481v6.724Z"/><path d="M40.97 4.292h-6.355V6.2h6.354V4.292ZM27.74 15.214H10.242v1.908H27.74v-1.908Zm0 5.341H10.242v1.908H27.74v-1.908ZM7.397 22.32H.284v-7.106h7.113v7.106Zm-5.216-1.908h3.32v-3.29H2.18v3.29ZM45 24.418H30.585v-10.54H45v10.54Zm-12.52-1.907h10.622v-6.725H32.481v6.725Z"/><path d="M40.97 18.17h-6.355v1.908h6.354v-1.907ZM22.998 39.728h-1.897v3.624h1.897v-3.624Zm-7.103 3.181-.938 1.658 3.174 1.816.938-1.658-3.174-1.816Zm2.452 5.9-3.174 1.815.938 1.658 3.174-1.815-.938-1.658Zm8.055-.337-.938 1.658 3.173 1.816.938-1.658-3.173-1.816Zm2.013-5.895-3.174 1.816.938 1.658 3.174-1.816-.939-1.658Zm-.723 16.084-10.906-.095 5.548-9.3 5.358 9.395Zm-7.54-2.003 4.268.048-2.086-3.672-2.181 3.624Zm1.19.878-.041 4.435 1.897.018.04-4.435-1.896-.018Z"/></g><defs><clipPath id="a"><path fill="#fff" d="M0 0h45v62H0z"/></clipPath></defs></svg>