<svg width="74" height="75" fill="none" xmlns="http://www.w3.org/2000/svg"><path d="M35.316 53.19c.148.129.309.257.466.382a18.853 18.853 0 0 1-10.545 3.219 18.82 18.82 0 0 1-7.287-1.464 19.009 19.009 0 0 1-6.178-4.181 19.3 19.3 0 0 1-4.128-6.26A19.508 19.508 0 0 1 6.198 37.5a19.5 19.5 0 0 1 2.701-9.91 19.153 19.153 0 0 1 7.34-7.098 18.831 18.831 0 0 1 9.894-2.27 18.88 18.88 0 0 1 9.64 3.203c-.154.134-.309.256-.426.394a20.708 20.708 0 0 0-5.228 7.058 20.966 20.966 0 0 0-1.857 8.623c0 6.016 2.568 11.734 7.054 15.69Zm13.447-34.984a18.753 18.753 0 0 0-10.533 3.219c.151.134.306.256.423.394 4.508 3.947 7.088 9.669 7.088 15.681a20.948 20.948 0 0 1-7.054 15.69c-.151.129-.312.257-.466.382A18.82 18.82 0 0 0 48.76 56.79c2.52.032 5.021-.442 7.359-1.397a19.015 19.015 0 0 0 6.258-4.165 19.31 19.31 0 0 0 4.19-6.289 19.521 19.521 0 0 0 .001-14.88 19.31 19.31 0 0 0-4.188-6.29 19.016 19.016 0 0 0-6.258-4.166 18.812 18.812 0 0 0-7.36-1.398ZM37 22.344a19.18 19.18 0 0 0-5.358 6.728 19.441 19.441 0 0 0-1.906 8.428 19.433 19.433 0 0 0 1.904 8.433A19.173 19.173 0 0 0 37 52.666a19.193 19.193 0 0 0 5.36-6.733 19.455 19.455 0 0 0 1.907-8.433 19.435 19.435 0 0 0-1.907-8.428A19.173 19.173 0 0 0 37 22.343Z" fill="#000"/></svg>