<svg width="29" height="29" fill="none" xmlns="http://www.w3.org/2000/svg"><path d="m13.96 17.436-.27-2.916.09-.09c1.152-.024 2.034-.264 2.646-.72.624-.456.936-1.074.936-1.854 0-.66-.24-1.212-.72-1.656-.48-.456-1.116-.684-1.908-.684-1.212 0-2.304.564-3.276 1.692l-.918-.882c1.152-1.392 2.562-2.088 4.23-2.088 1.2 0 2.172.336 2.916 1.008.744.672 1.116 1.536 1.116 2.592 0 1.068-.348 1.908-1.044 2.52-.696.6-1.596.978-2.7 1.134l-.18 1.944h-.918ZM13.582 21v-1.89h1.656V21h-1.656Z" fill="#000"/><circle cx="14.5" cy="14.5" r="14" stroke="#000"/></svg>