<svg width="106" height="107" fill="none" xmlns="http://www.w3.org/2000/svg"><path d="M8.4 72.884V60.187L0 37.44h4.227L10.4 54.998l7.129-21.23h3.882l-9.146 26.56v12.56L8.4 72.883Zm24.897 0h-3.243a12.823 12.823 0 0 1-.33-1.99h-.24c-1.086 1.395-2.487 2.337-4.66 2.337-3.521 0-5.936-2.684-5.936-7.593 0-5.35 2.713-8.724 9.646-8.724h.533v-1.481c0-3.277-1.086-4.668-3.243-4.668-1.97 0-3.644 1.043-4.919 2.177l-.742-3.414c1.14-.94 3.402-1.983 5.9-1.983 4.386 0 6.784 1.882 6.784 7.941v11.74c0 2.384.238 4.477.427 5.661l.023-.003Zm-4.21-13.028h-.45c-4.78 0-5.794 2.124-5.794 5.347 0 2.876.93 4.752 2.879 4.752 1.328 0 2.66-.886 3.348-1.983l.017-8.115ZM41.46 72.885h-3.83V47.822h3.83v2.194h.238c.692-.94 2.557-2.474 4.866-2.474 3.243 0 4.952 1.828 4.952 5.644v19.698h-3.882v-19.35c0-1.883-.825-2.542-2.31-2.542-1.606 0-2.967 1.254-3.865 2.488v19.404Zm13.85-11.546c0-9.282 3.435-13.793 8.387-13.793 1.19 0 2.415.401 3.157.94V37.44h3.83v35.444h-2.85l-.308-1.99h-.242c-1.07 1.395-2.447 2.337-4.465 2.337-4.866 0-7.51-4.162-7.51-11.893Zm11.547-9.44c-.778-.785-1.62-1.187-2.902-1.187-3.087 0-4.57 4.722-4.57 9.82 0 5.856 1.086 9.42 3.898 9.42 1.918 0 2.932-.94 3.574-1.93V51.899Zm15.92 21.333c-5.105 0-8.265-4.109-8.265-11.793 0-8.042 2.21-13.897 7.47-13.897 4.124 0 6.814 3.117 6.814 11.62v2.123h-10.3c0 5.661 1.574 8.624 4.625 8.624 2.16 0 3.746-.977 4.713-1.672l.898 2.96a9.337 9.337 0 0 1-5.953 2.035h-.003ZM78.55 58.099h6.334c0-4.267-.692-7.383-2.902-7.383-2.345 0-3.17 2.925-3.448 7.383h.016Zm26.918-10.205-4.608 11.703 5.14 13.29h-3.965l-3.852-10.312-3.724 10.312h-3.78l5.158-12.944-4.674-12.05h3.985l3.21 9.071 3.379-9.071h3.73Z" fill="#000"/></svg>