<svg width="57" height="58" fill="none" xmlns="http://www.w3.org/2000/svg"><path d="M50.958 24.539c.292 1.592.451 3.258.451 4.995 0 13.591-8.94 23.256-22.441 23.256-3.07 0-6.111-.614-8.948-1.81a23.35 23.35 0 0 1-7.586-5.156 23.813 23.813 0 0 1-5.068-7.719A24.145 24.145 0 0 1 5.588 29c0-3.124.604-6.218 1.778-9.105a23.814 23.814 0 0 1 5.068-7.719 23.35 23.35 0 0 1 7.586-5.157 23.023 23.023 0 0 1 8.948-1.809c6.313 0 11.588 2.364 15.634 6.202l-6.59 6.706V18.1c-2.453-2.378-5.567-3.599-9.044-3.599-7.714 0-13.984 6.632-13.984 14.483 0 7.85 6.27 14.496 13.984 14.496 6.999 0 11.763-4.072 12.742-9.665H28.968V24.54H50.96h-.002Z" fill="#000"/></svg>