<svg width="50" height="33" fill="none" xmlns="http://www.w3.org/2000/svg"><path d="M23.68 29.262c.117.104.242.208.365.31a14.4 14.4 0 0 1-8.265 2.618c-1.96.001-3.9-.403-5.711-1.191a14.884 14.884 0 0 1-4.843-3.4 15.76 15.76 0 0 1-3.234-5.093A16.389 16.389 0 0 1 .857 16.5c0-2.839.732-5.624 2.118-8.06 1.386-2.436 3.374-4.431 5.753-5.773A14.324 14.324 0 0 1 16.483.821a14.43 14.43 0 0 1 7.555 2.605c-.12.109-.241.208-.333.32a16.813 16.813 0 0 0-4.098 5.74A17.596 17.596 0 0 0 18.15 16.5c0 4.893 2.013 9.544 5.53 12.762ZM34.22.808a14.323 14.323 0 0 0-8.256 2.618c.119.109.24.208.331.32 3.533 3.21 5.556 7.864 5.556 12.754s-2.018 9.539-5.53 12.762c-.118.104-.243.208-.364.31a14.374 14.374 0 0 0 8.26 2.618c1.975.026 3.936-.36 5.768-1.136a14.876 14.876 0 0 0 4.905-3.388 15.758 15.758 0 0 0 3.284-5.115A16.397 16.397 0 0 0 49.33 16.5a16.39 16.39 0 0 0-1.154-6.051 15.76 15.76 0 0 0-3.283-5.116 14.878 14.878 0 0 0-4.905-3.388A14.277 14.277 0 0 0 34.22.808ZM25 4.173a15.515 15.515 0 0 0-4.2 5.472 16.308 16.308 0 0 0-1.494 6.855 16.304 16.304 0 0 0 1.493 6.859A15.51 15.51 0 0 0 25 28.835a15.529 15.529 0 0 0 4.201-5.477 16.322 16.322 0 0 0 1.495-6.858 16.303 16.303 0 0 0-1.495-6.855A15.51 15.51 0 0 0 25 4.173Z" fill="#7044CC"/></svg>