<svg width="46" height="62" fill="none" xmlns="http://www.w3.org/2000/svg"><g clip-path="url(#a)" fill="#7044CC"><path d="M38.945 30.046h-.238V28.14h.238c1.144 0 2.097-.907 2.097-2.051v-5.533c0-1.144-.953-2.05-2.097-2.05h-.238c-.143 0-.239.047-.382.095l-.667-1.812c.334-.143.715-.191 1.049-.191h.238c2.193 0 4.004 1.764 4.004 3.958v5.485c0 2.194-1.811 4.006-4.004 4.006ZM46 62h-1.907v-7.535c0-2.814-2.67-5.056-5.958-5.056H7.865c-3.289 0-5.958 2.29-5.958 5.056V62H0v-7.535c0-3.863 3.527-6.963 7.865-6.963h30.27c4.337 0 7.865 3.147 7.865 6.963V62Z"/><path d="M22.976 45.308c-9.01 0-16.35-7.25-16.35-16.168V16.978h1.907V29.14c0 7.87 6.482 14.26 14.443 14.26 8.008 0 14.491-6.39 14.491-14.26V16.454h1.907V29.14c0 8.919-7.34 16.168-16.398 16.168Z"/><path d="M8.39 30.332H2.622V9.586c0-3.53 2.908-6.39 6.483-6.39h1.954A8.036 8.036 0 0 1 17.494 0H44.38v6.725c0 4.387-3.622 7.964-8.103 7.964h-24.93c-1.622 0-2.956 1.288-2.956 2.862v12.781Zm-3.862-1.907h2.003V17.55c0-2.623 2.192-4.77 4.862-4.77H36.37c3.384 0 6.197-2.718 6.197-6.056V1.908H17.494a6.166 6.166 0 0 0-5.148 2.766l-.286.43H9.057c-2.526 0-4.576 2.002-4.576 4.482v18.839h.048Z"/><path d="m8.533 30.094-1.05-.096c-1.763-.19-4.861-1.669-4.861-3.91v-5.533c0-2.289 3.146-3.72 4.862-3.91l1.049-.096v13.545ZM6.626 18.79c-1.096.381-2.098 1.144-2.098 1.764v5.485c0 .62 1.05 1.383 2.098 1.765V18.79Zm21.403 30.476h-1.907v7.01h1.907v-7.01Zm-5.196 0h-1.907v7.01h1.907v-7.01Z"/></g><defs><clipPath id="a"><path fill="#fff" d="M0 0h46v62H0z"/></clipPath></defs></svg>