<svg width="66" height="21" fill="none" xmlns="http://www.w3.org/2000/svg"><path d="M47.752 1.237a13.35 13.35 0 0 0-4.716-.826c-5.2 0-8.873 2.653-8.898 6.462-.033 2.797 2.61 4.374 4.608 5.309 2.05.961 2.736 1.567 2.73 2.426-.013 1.307-1.638 1.9-3.15 1.9-2.076 0-3.21-.294-4.956-1.028l-.646-.306-.738 4.385c1.264.533 3.543.99 5.896 1.03 5.528 0 9.142-2.637 9.184-6.689.045-2.235-1.385-3.923-4.394-5.32-1.83-.904-2.964-1.51-2.964-2.428 0-.813.972-1.682 3.003-1.682a9.481 9.481 0 0 1 3.942.753l.488.22.738-4.235-.127.03Zm13.494-.47h-4.063c-1.264 0-2.216.352-2.769 1.622l-7.813 17.927h5.529l1.104-2.94 6.747.007c.16.688.647 2.933.647 2.933h4.875L61.246.766ZM26.659.601h5.268L28.633 20.16H23.37L26.66.595v.007Zm-13.373 10.78.546 2.716L18.98.766h5.58L16.269 20.29h-5.567L6.152 3.76a1.115 1.115 0 0 0-.484-.655 22.4 22.4 0 0 0-5.174-1.94l.071-.41h8.48c1.15.045 2.076.41 2.385 1.655l1.852 8.983v-.01h.004Zm41.46 1.995 2.1-5.47c-.027.058.432-1.13.698-1.864l.36 1.689 1.22 5.641h-4.382v.004h.004Z" fill="#7044CC"/></svg>