<svg width="98" height="99" fill="none" xmlns="http://www.w3.org/2000/svg"><path d="M67.534 37.892a16.815 16.815 0 0 0-5.925-1.035c-6.533 0-11.147 3.325-11.18 8.097-.04 3.507 3.28 5.482 5.79 6.654 2.577 1.204 3.438 1.963 3.43 3.04-.016 1.638-2.058 2.38-3.956 2.38-2.61 0-4.035-.367-6.227-1.287l-.813-.383-.927 5.494c1.588.668 4.45 1.242 7.407 1.291 6.946 0 11.487-3.304 11.54-8.382.057-2.8-1.74-4.917-5.521-6.666-2.299-1.134-3.724-1.893-3.724-3.044 0-1.019 1.22-2.108 3.773-2.108a11.94 11.94 0 0 1 4.953.945l.613.276.927-5.309-.16.037Zm16.954-.59h-5.104c-1.588 0-2.785.442-3.479 2.034L66.09 61.801h6.945l1.389-3.684 8.477.008c.2.862.812 3.676.812 3.676h6.125l-5.349-24.499Zm-43.455-.206h6.62l-4.141 24.51h-6.61l4.131-24.518v.008ZM24.23 50.606l.686 3.403 6.468-16.707h7.012L27.979 61.768h-6.995l-5.716-20.716a1.397 1.397 0 0 0-.609-.82 28.19 28.19 0 0 0-6.5-2.43l.09-.516h10.653c1.445.058 2.609.515 2.997 2.075l2.327 11.257v-.013h.005Zm52.092 2.5 2.637-6.857c-.032.075.543-1.414.878-2.334l.454 2.116 1.53 7.07h-5.504v.004h.005Z" fill="#000"/></svg>