<svg width="26" height="26" fill="none" xmlns="http://www.w3.org/2000/svg"><path d="M23.377 7.426c.152-.504 0-.873-.717-.873h-2.376c-.604 0-.88.32-1.032.67 0 0-1.208 2.946-2.92 4.856-.552.556-.805.731-1.106.731-.15 0-.37-.175-.37-.679V7.426c0-.604-.174-.873-.677-.873h-3.734c-.377 0-.604.28-.604.546 0 .572.856.704.944 2.316v3.497c0 .766-.138.906-.441.906-.805 0-2.764-2.957-3.926-6.34-.227-.659-.455-.924-1.062-.924H2.981c-.679 0-.814.32-.814.67 0 .631.805 3.751 3.749 7.878 1.963 2.817 4.727 4.345 7.244 4.345 1.51 0 1.696-.34 1.696-.924v-2.13c0-.678.144-.815.621-.815.351 0 .956.178 2.366 1.535 1.61 1.61 1.876 2.333 2.78 2.333h2.375c.678 0 1.017-.34.822-1.009-.213-.666-.982-1.636-2.003-2.783-.555-.654-1.383-1.358-1.636-1.71-.352-.454-.25-.655 0-1.058.002.001 2.895-4.074 3.196-5.46Z" fill="#fff"/></svg>